<?xml version="1.0" encoding="UTF-8" standalone="no"?>
<!-- Created with Inkscape (http://www.inkscape.org/) -->

<svg
   width="162.41058mm"
   height="24.928846mm"
   viewBox="0 0 162.41058 24.928846"
   version="1.1"
   id="svg1"
   inkscape:version="1.4.2 (ebf0e940d0, 2025-05-08)"
   sodipodi:docname="Logo of Vanderlande.svg"
   xmlns:inkscape="http://www.inkscape.org/namespaces/inkscape"
   xmlns:sodipodi="http://sodipodi.sourceforge.net/DTD/sodipodi-0.dtd"
   xmlns="http://www.w3.org/2000/svg"
   xmlns:svg="http://www.w3.org/2000/svg">
  <sodipodi:namedview
     id="namedview1"
     pagecolor="#ffffff"
     bordercolor="#000000"
     borderopacity="0.25"
     inkscape:showpageshadow="2"
     inkscape:pageopacity="0.0"
     inkscape:pagecheckerboard="0"
     inkscape:deskcolor="#d1d1d1"
     inkscape:document-units="mm"
     inkscape:zoom="0.71268238"
     inkscape:cx="258.17953"
     inkscape:cy="108.04252"
     inkscape:window-width="1870"
     inkscape:window-height="1011"
     inkscape:window-x="0"
     inkscape:window-y="0"
     inkscape:window-maximized="1"
     inkscape:current-layer="layer1" />
  <defs
     id="defs1">
    <clipPath
       id="clip-0">
      <path
         clip-rule="nonzero"
         d="m 428,33.148438 h 14 V 50 h -14 z m 0,0"
         id="path92" />
    </clipPath>
    <clipPath
       id="clip-1">
      <path
         clip-rule="nonzero"
         d="m 509,33.148438 h 14 V 50 h -14 z m 0,0"
         id="path93" />
    </clipPath>
    <clipPath
       id="clip-2">
      <path
         clip-rule="nonzero"
         d="m 442,33.148438 h 15 V 50 h -15 z m 0,0"
         id="path94" />
    </clipPath>
    <clipPath
       id="clip-3">
      <path
         clip-rule="nonzero"
         d="m 456,33.148438 h 15 V 50 h -15 z m 0,0"
         id="path95" />
    </clipPath>
    <clipPath
       id="clip-4">
      <path
         clip-rule="nonzero"
         d="m 471,33.148438 h 14 V 50 h -14 z m 0,0"
         id="path96" />
    </clipPath>
    <clipPath
       id="clip-5">
      <path
         clip-rule="nonzero"
         d="m 523,33.148438 h 15 V 50 h -15 z m 0,0"
         id="path97" />
    </clipPath>
    <clipPath
       id="clip-6">
      <path
         clip-rule="nonzero"
         d="m 538,33.148438 h 14 V 50 h -14 z m 0,0"
         id="path98" />
    </clipPath>
    <clipPath
       id="clip-7">
      <path
         clip-rule="nonzero"
         d="m 552,33.148438 h 13.51172 V 50 H 552 Z m 0,0"
         id="path99" />
    </clipPath>
    <clipPath
       id="clip-8">
      <path
         clip-rule="nonzero"
         d="m 484,33.148438 h 14 V 50 h -14 z m 0,0"
         id="path100" />
    </clipPath>
    <clipPath
       id="clip-9">
      <path
         clip-rule="nonzero"
         d="m 498,33.148438 h 10 V 50 h -10 z m 0,0"
         id="path101" />
    </clipPath>
    <clipPath
       id="clip-10">
      <path
         clip-rule="nonzero"
         d="M 416.62109,33.148438 H 430 V 50 h -13.37891 z m 0,0"
         id="path102" />
    </clipPath>
  </defs>
  <g
     inkscape:label="Layer 1"
     inkscape:groupmode="layer"
     id="layer1"
     transform="translate(-36.915432,-119.85625)">
    <path
       fill-rule="nonzero"
       fill="#f48025"
       fill-opacity="1"
       d="M 38.036153,144.7851 H 198.60766 v -2.46306 H 38.036153 Z m 0,0"
       id="path1341"
       style="stroke-width:1.0909" />
    <g
       clip-path="url(#clip-0)"
       id="g1342"
       transform="matrix(1.0909027,0,0,1.0909027,-417.57764,83.694533)">
      <path
         fill-rule="nonzero"
         fill="#221f1f"
         fill-opacity="1"
         d="m 438.57812,33.148438 h -3.61328 c -1.0625,0 -2.05468,0.367187 -2.95312,1.085937 -0.89844,0.722656 -1.44922,1.605469 -1.64453,2.621094 l -2.35938,12.378906 h 3.77344 c 0.17578,0 0.32422,-0.125 0.35937,-0.296875 l 1.14844,-6.042969 h 3.38281 l -1.21093,6.339844 h 3.78125 c 0.17578,0 0.32422,-0.125 0.35547,-0.296875 L 441.875,36.992188 c 0.19922,-1.035157 -0.0312,-1.945313 -0.68359,-2.707032 -0.64454,-0.75 -1.52344,-1.136718 -2.61329,-1.136718 m -0.98437,4.828124 -0.27734,1.621094 h -3.39454 l 0.24219,-1.457031 c 0.0859,-0.449219 0.33203,-0.832031 0.7461,-1.164063 0.42187,-0.332031 0.86328,-0.496093 1.35156,-0.496093 0.45703,0 0.80859,0.144531 1.07031,0.445312 0.25781,0.292969 0.33984,0.628907 0.26172,1.050781"
         id="path1342" />
    </g>
    <g
       clip-path="url(#clip-1)"
       id="g1343"
       transform="matrix(1.0909027,0,0,1.0909027,-417.57764,83.694533)">
      <path
         fill-rule="nonzero"
         fill="#221f1f"
         fill-opacity="1"
         d="m 519.56641,33.148438 h -3.61329 c -1.0625,0 -2.05468,0.367187 -2.94921,1.085937 -0.89844,0.722656 -1.45313,1.605469 -1.64844,2.621094 L 509,49.234375 h 3.77344 c 0.17187,0 0.32422,-0.125 0.35547,-0.296875 l 1.15234,-6.042969 h 3.37891 l -1.20704,6.339844 h 3.77735 c 0.17578,0 0.32812,-0.125 0.35937,-0.296875 l 2.27735,-11.945312 c 0.19531,-1.035157 -0.0312,-1.945313 -0.6836,-2.707032 -0.64843,-0.75 -1.52734,-1.136718 -2.61718,-1.136718 m -0.98047,4.828124 -0.27735,1.621094 h -3.39453 l 0.23828,-1.457031 c 0.0899,-0.449219 0.33203,-0.832031 0.75,-1.164063 0.41797,-0.332031 0.86328,-0.496093 1.35157,-0.496093 0.45703,0 0.80468,0.144531 1.0664,0.445312 0.25781,0.292969 0.34375,0.628907 0.26563,1.050781"
         id="path1343" />
    </g>
    <g
       clip-path="url(#clip-2)"
       id="g1344"
       transform="matrix(1.0909027,0,0,1.0909027,-417.57764,83.694533)">
      <path
         fill-rule="nonzero"
         fill="#221f1f"
         fill-opacity="1"
         d="m 456.23828,33.4375 h -3.625 l -1.5,7.84375 -2.88281,-7.695312 C 448.19141,33.5 448.05469,33.4375 447.94141,33.4375 l -2.63282,0.0039 -3.01172,15.792969 h 3.73047 c 0.17188,0 0.32032,-0.125 0.35157,-0.292969 l 1.4375,-7.550781 2.94531,7.84375 h 2.60156 c 0.17188,0 0.32031,-0.125 0.35156,-0.292969 l 2.875,-15.078125 c 0.0156,-0.105469 -0.0117,-0.210937 -0.0781,-0.296875 -0.0664,-0.08203 -0.16797,-0.128906 -0.27344,-0.128906"
         id="path1344" />
    </g>
    <g
       clip-path="url(#clip-3)"
       id="g1345"
       transform="matrix(1.0909027,0,0,1.0909027,-417.57764,83.694533)">
      <path
         fill-rule="nonzero"
         fill="#221f1f"
         fill-opacity="1"
         d="m 467.37891,33.4375 -7.44922,0.0039 -3.00391,15.792969 h 7.57813 c 1.04296,0 2.01953,-0.359375 2.89843,-1.070313 0.88282,-0.710937 1.42578,-1.578124 1.61719,-2.570312 l 1.59766,-8.378906 c 0.19531,-1.019532 -0.0312,-1.914063 -0.67188,-2.664063 -0.63672,-0.738281 -1.5,-1.113281 -2.5664,-1.113281 m -0.94922,4.519531 -1.26172,6.625 c -0.0703,0.367188 -0.27344,0.679688 -0.61719,0.960938 -0.34375,0.277343 -0.71094,0.414062 -1.12109,0.414062 h -1.875 l 1.76172,-9.238281 h 2.01562 c 0.37891,0 0.66797,0.117188 0.88281,0.363281 0.21485,0.246094 0.28125,0.523438 0.21485,0.875"
         id="path1345" />
    </g>
    <g
       clip-path="url(#clip-4)"
       id="g1346"
       transform="matrix(1.0909027,0,0,1.0909027,-417.57764,83.694533)">
      <path
         fill-rule="nonzero"
         fill="#221f1f"
         fill-opacity="1"
         d="m 484.30469,33.566406 c -0.0703,-0.08203 -0.16797,-0.128906 -0.27735,-0.128906 l -9.83593,0.0039 -3.01172,15.792969 h 9.97265 c 0.17188,0 0.32032,-0.121094 0.35547,-0.292969 l 0.48828,-2.554687 c 0.0195,-0.105469 -0.008,-0.214844 -0.0781,-0.296875 -0.0664,-0.08203 -0.16406,-0.132813 -0.27344,-0.132813 h -5.83594 l 0.5625,-2.945312 h 4.21875 c 0.16797,0 0.31641,-0.125 0.34766,-0.292969 l 0.5,-2.558594 c 0.0195,-0.101562 -0.008,-0.214844 -0.0781,-0.296875 -0.0664,-0.08203 -0.16796,-0.132812 -0.27343,-0.132812 h -4.07422 l 0.54687,-3.015625 h 5.96875 c 0.17188,0 0.32032,-0.121094 0.35157,-0.289063 l 0.5,-2.558593 c 0.0195,-0.109376 -0.008,-0.214844 -0.0742,-0.300782"
         id="path1346" />
    </g>
    <g
       clip-path="url(#clip-5)"
       id="g1347"
       transform="matrix(1.0909027,0,0,1.0909027,-417.57764,83.694533)">
      <path
         fill-rule="nonzero"
         fill="#221f1f"
         fill-opacity="1"
         d="m 537.35156,33.4375 h -3.62109 l -1.50391,7.84375 -2.88281,-7.695312 C 529.30469,33.5 529.16797,33.4375 529.05469,33.4375 l -2.63282,0.0039 -3.01171,15.792969 h 3.73046 c 0.17188,0 0.32032,-0.125 0.35157,-0.292969 l 1.4414,-7.550781 2.9375,7.84375 h 2.60547 c 0.17188,0 0.32031,-0.125 0.35156,-0.292969 l 2.875,-15.078125 c 0.0195,-0.105469 -0.008,-0.210937 -0.0781,-0.296875 -0.0664,-0.08203 -0.16797,-0.128906 -0.27344,-0.128906"
         id="path1347" />
    </g>
    <g
       clip-path="url(#clip-6)"
       id="g1348"
       transform="matrix(1.0909027,0,0,1.0909027,-417.57764,83.694533)">
      <path
         fill-rule="nonzero"
         fill="#221f1f"
         fill-opacity="1"
         d="m 548.49219,33.4375 -7.44922,0.0039 -3.00391,15.792969 h 7.57813 c 1.04297,0 2.01953,-0.359375 2.89843,-1.070313 0.88282,-0.710937 1.42579,-1.578124 1.61719,-2.570312 l 1.59766,-8.378906 c 0.19531,-1.019532 -0.0312,-1.914063 -0.67188,-2.664063 -0.63672,-0.738281 -1.5,-1.113281 -2.5664,-1.113281 m -0.94532,4.519531 -1.26562,6.625 c -0.0703,0.367188 -0.27344,0.679688 -0.61719,0.960938 -0.34375,0.277343 -0.71094,0.414062 -1.12109,0.414062 h -1.875 l 1.76172,-9.238281 h 2.01562 c 0.37891,0 0.66797,0.117188 0.88281,0.363281 0.21485,0.246094 0.28516,0.523438 0.21875,0.875"
         id="path1348" />
    </g>
    <g
       clip-path="url(#clip-7)"
       id="g1349"
       transform="matrix(1.0909027,0,0,1.0909027,-417.57764,83.694533)">
      <path
         fill-rule="nonzero"
         fill="#221f1f"
         fill-opacity="1"
         d="m 565.41797,33.566406 c -0.0664,-0.08203 -0.17188,-0.128906 -0.27735,-0.128906 l -9.83984,0.0039 -3.00781,15.792969 h 9.97656 c 0.16797,0 0.31641,-0.121094 0.34766,-0.292969 l 0.48828,-2.554687 c 0.0234,-0.105469 -0.004,-0.214844 -0.0742,-0.296875 -0.0664,-0.08203 -0.16797,-0.132813 -0.27344,-0.132813 h -5.83594 l 0.56641,-2.945312 h 4.21094 c 0.17187,0 0.32031,-0.125 0.35156,-0.292969 l 0.5,-2.558594 c 0.0156,-0.101562 -0.0117,-0.214844 -0.0781,-0.296875 -0.0664,-0.08203 -0.16407,-0.132812 -0.27344,-0.132812 H 558.125 l 0.54687,-3.015625 h 5.96875 c 0.17188,0 0.32032,-0.121094 0.35157,-0.289063 l 0.5,-2.558593 c 0.0195,-0.109376 -0.008,-0.214844 -0.0742,-0.300782"
         id="path1349" />
    </g>
    <g
       clip-path="url(#clip-8)"
       id="g1350"
       transform="matrix(1.0909027,0,0,1.0909027,-417.57764,83.694533)">
      <path
         fill-rule="nonzero"
         fill="#221f1f"
         fill-opacity="1"
         d="m 494.47266,33.4375 -7.45313,0.0039 -3.01172,15.792969 h 3.70703 c 0.17188,0 0.32032,-0.125 0.35157,-0.292969 l 1.15234,-5.929687 h 2.00391 c 0.375,0 0.66406,0.121093 0.88281,0.371093 0.21094,0.25 0.28125,0.523438 0.21484,0.875 l -0.96875,4.976563 h 3.77735 c 0.16796,0 0.3164,-0.125 0.34765,-0.292969 l 1.12891,-5.933594 c 0.11328,-0.570312 -0.0156,-1.070312 -0.375,-1.488281 -0.19922,-0.226562 -0.4336,-0.394531 -0.70703,-0.496093 0.25781,-0.15625 0.48828,-0.335938 0.69531,-0.550782 0.71875,-0.742187 1.16406,-1.527344 1.31641,-2.34375 l 0.17578,-0.914062 c 0.19531,-1.019532 -0.0312,-1.914063 -0.66797,-2.660156 -0.63672,-0.742188 -1.5,-1.117188 -2.57031,-1.117188 M 493.5,37.957031 493.4375,38.34375 c -0.0742,0.375 -0.27734,0.691406 -0.62109,0.972656 -0.34766,0.277344 -0.71485,0.414063 -1.11719,0.414063 h -1.86719 l 0.56641,-3.011719 h 2.0039 c 0.37891,0 0.66797,0.117188 0.88282,0.363281 0.21484,0.246094 0.28515,0.523438 0.21484,0.875"
         id="path1350" />
    </g>
    <g
       clip-path="url(#clip-9)"
       id="g1351"
       transform="matrix(1.0909027,0,0,1.0909027,-417.57764,83.694533)">
      <path
         fill-rule="nonzero"
         fill="#221f1f"
         fill-opacity="1"
         d="m 498.48828,49.234375 h 8.16797 c 0.17187,0 0.32031,-0.125 0.35156,-0.292969 l 0.5,-2.554687 c 0.0195,-0.105469 -0.008,-0.214844 -0.0742,-0.296875 -0.0703,-0.08594 -0.16797,-0.132813 -0.27734,-0.132813 h -4.02344 l 2.28906,-12.089843 c 0.0195,-0.109376 -0.008,-0.214844 -0.0742,-0.300782 -0.0703,-0.08203 -0.16797,-0.128906 -0.27735,-0.128906 l -3.57031,0.0039"
         id="path1351" />
    </g>
    <g
       clip-path="url(#clip-10)"
       id="g1352"
       transform="matrix(1.0909027,0,0,1.0909027,-417.57764,83.694533)">
      <path
         fill-rule="nonzero"
         fill="#221f1f"
         fill-opacity="1"
         d="m 416.62109,33.308594 c 0,0 2.96094,0 3.75782,0 0.47265,0 0.67968,0.222656 0.69921,0.703125 0.13672,3.339843 0.11329,10.199219 0.11329,10.199219 l 3.58984,-10.902344 c 0,0 3.06641,0 3.78906,0 0.44531,0 0.60156,0.0078 0.71094,0.144531 0.125,0.15625 -0.0156,0.476563 -0.0156,0.476563 l -5.73437,14.417968 c 0,0 -0.15234,0.359375 -0.31641,0.589844 -0.19531,0.28125 -0.45312,0.304688 -0.91015,0.304688 h -4.64063"
         id="path1352" />
    </g>
  </g>
</svg>